<svg viewBox="0 0 326 326" fill="none" xmlns="http://www.w3.org/2000/svg"><mask id="mask0" mask-type="alpha" maskUnits="userSpaceOnUse" x="0" y="-13" width="326" height="339"><rect y="-13" width="326" height="338.66" rx="9.49515" fill="#1CB0F6"/></mask><g mask="url(#mask0)"><path d="M111.085 167.303C115.804 173.45 114.646 182.258 108.499 186.977V186.977C102.352 191.695 93.5434 190.537 88.8249 184.39L62.0024 149.446L84.2629 132.359L111.085 167.303Z" fill="#DA8E74"/><path d="M127.028 188.364C131.759 194.527 130.598 203.358 124.435 208.089V208.089C118.272 212.819 109.441 211.658 104.711 205.495L70.8426 161.372L93.1601 144.242L127.028 188.364Z" fill="#FFAADE"/><rect width="22.6494" height="12.8813" rx="6.44063" transform="matrix(-0.947123 0.320872 0.320872 0.947123 72.9688 145.695)" fill="#DA8E74"/><circle r="38.9778" transform="matrix(-0.941503 -0.337004 -0.337004 0.941503 229.745 116.833)" fill="#3D3D3D"/><circle r="31.1317" transform="matrix(-0.941503 -0.337004 -0.337004 0.941503 164.171 128.041)" fill="#3D3D3D"/><path d="M173.951 98.4741C185.389 102.568 192.644 100.326 201.027 90.4232L201.363 96.9953L192.492 121.778L168.662 113.249L173.951 98.4741Z" fill="#3D3D3D"/><circle r="30.3724" transform="matrix(-0.941503 -0.337004 -0.337004 0.941503 250.614 164.686)" fill="#3D3D3D"/><path d="M180.488 180.724C165.064 208.203 158.592 235.912 170.827 266.787" stroke="#DA8E74" stroke-width="137.691" stroke-linecap="round"/><path fill-rule="evenodd" clip-rule="evenodd" d="M214.184 120.691C247.34 139.302 259.131 181.268 240.52 214.424C235.495 223.375 233.902 228.934 233.446 232.149C233.104 234.561 233.127 237.133 234.828 241.426C248.835 276.775 231.534 316.785 196.186 330.792C160.837 344.799 120.827 327.498 106.82 292.15C84.4 235.57 98.8271 185.55 120.451 147.026C139.063 113.87 181.029 102.08 214.184 120.691Z" fill="#DA8E74"/><path d="M135.059 177.882C127.438 179.74 123.881 181.865 117.674 186.331" stroke="#3D3D3D" stroke-width="33.6541" stroke-linecap="round"/><path fill-rule="evenodd" clip-rule="evenodd" d="M239.355 259.991C242.328 289.813 225.436 319.203 196.19 330.792C160.842 344.799 120.831 327.498 106.824 292.149C102.474 281.171 99.5111 270.439 97.7188 259.991L239.355 259.991Z" fill="#2BE69C"/><path fill-rule="evenodd" clip-rule="evenodd" d="M96.3163 249.282L160.535 265.695L235.835 247.545C236.17 248.285 236.56 249.061 237.012 249.882C237.131 250.1 237.25 250.317 237.367 250.535C238.314 253.887 238.994 257.263 239.419 260.638C203.987 284.903 142.302 296.259 101.251 277.104C98.6566 267.612 97.0621 258.329 96.3163 249.282Z" fill="#A56644"/><path fill-rule="evenodd" clip-rule="evenodd" d="M205.26 116.54C204.761 117.725 204.347 118.963 204.025 120.248L198.087 143.986C194.695 157.547 202.938 171.29 216.498 174.682L218.463 175.173C230.152 178.098 241.977 172.376 247.191 162.056C241.6 140.931 225.812 123.829 205.26 116.54Z" fill="#3D3D3D"/><path fill-rule="evenodd" clip-rule="evenodd" d="M96.2926 219.672C107.404 231.011 146.342 243.916 235.873 223.905C234.373 227.592 233.718 230.271 233.452 232.149C233.11 234.561 233.132 237.133 234.833 241.426C236.074 244.556 237.068 247.723 237.827 250.905C198.743 265.399 137.22 283.31 98.2839 263.088C95.3758 248.004 94.9258 233.497 96.2926 219.672Z" fill="#FFAADE"/><path d="M127.92 223.614L111.19 224.999L121.008 244.276C122.004 246.231 124.5 246.851 126.295 245.589L144.846 232.548L127.92 223.614Z" fill="#DA8E74"/><path fill-rule="evenodd" clip-rule="evenodd" d="M123.642 141.877C127.706 135.915 132.578 130.77 138.027 126.507C139.539 126.512 141.076 126.8 142.563 127.405C148.773 129.931 151.759 137.012 149.234 143.222L146.542 149.84C144.016 156.05 136.935 159.037 130.725 156.511C124.906 154.144 121.917 147.778 123.642 141.877Z" fill="white"/><rect x="158.387" y="132.697" width="24.9521" height="31.4212" rx="12.4761" transform="rotate(22.1326 158.387 132.697)" fill="white"/><rect x="134.914" y="131.81" width="10.6278" height="12.4761" rx="5.31388" transform="rotate(22.1326 134.914 131.81)" fill="#3D3D3D"/><path d="M135.326 179.536C149.094 173.739 167.799 171.377 169.385 179.535" stroke="#3D3D3D" stroke-width="31.2502" stroke-linecap="round"/><rect x="154.898" y="141.202" width="10.6278" height="12.4761" rx="5.31388" transform="rotate(22.1326 154.898 141.202)" fill="#3D3D3D"/><path d="M183.172 133.542C181.034 129.184 178.833 126.684 174.641 124.38" stroke="#3D3D3D" stroke-width="11.8373" stroke-linecap="round" stroke-linejoin="round"/><circle r="8.6055" transform="matrix(-0.978056 -0.208343 -0.208343 0.978056 140.369 160.297)" fill="#DA8E74"/><path d="M176.166 268.404L167.857 269.727L171.58 291.92L179.889 290.597L176.166 268.404Z" fill="#2BE69C"/><path d="M113.762 268.347L107.706 266.922L108.582 289.081L116.072 289.438L113.762 268.347Z" fill="#2BE69C"/><path fill-rule="evenodd" clip-rule="evenodd" d="M244.863 205.168C229.289 198.705 219.406 182.351 221.839 164.87C223.258 154.679 228.599 145.999 236.125 140.142C249.575 158.604 253.278 183.091 244.863 205.168Z" fill="#3D3D3D"/><circle r="10.6303" transform="matrix(-0.994073 0.108713 0.108713 0.994073 228.866 177.664)" fill="#DA8E74"/><path d="M92.7775 86.135C94.7636 86.2802 96.256 88.008 96.1108 89.9941L94.7287 108.899C93.809 121.478 82.8664 130.929 70.2876 130.01C57.7088 129.09 48.2572 118.148 49.1768 105.569L50.559 86.6638C50.7042 84.6777 52.432 83.1853 54.4181 83.3305L92.7775 86.135Z" fill="#97DEFF"/><rect x="71.9727" y="117.891" width="3.60579" height="15.6251" transform="rotate(3.89972 71.9727 117.891)" fill="#97DEFF"/><rect x="68.6445" y="148.988" width="4.80773" height="27.6444" transform="rotate(3.89972 68.6445 148.988)" fill="#97DEFF"/><rect x="59.3242" y="179.676" width="6.00966" height="20.4328" rx="3.00483" transform="rotate(-86.1003 59.3242 179.676)" fill="#97DEFF"/><path d="M92.8251 108.174C92.0373 118.95 82.6635 127.046 71.8882 126.259L70.4671 126.155C59.6918 125.367 50.9546 116.149 51.7424 105.374C51.82 104.311 51.9812 103.275 52.219 102.27C52.219 102.27 64.8629 120.303 80.1678 106.681C87.7622 99.9208 93.5724 97.9531 92.8251 108.174Z" fill="#B12669"/><rect width="21.7305" height="13.3585" rx="6.67925" transform="matrix(-0.995772 -0.0918548 -0.0918548 0.995772 80.6211 130.104)" fill="#DA8E74"/><rect width="17.175" height="11.5772" rx="5.7886" transform="matrix(-0.997049 -0.0767697 -0.0767697 0.997049 78.168 140.065)" fill="#DA8E74"/><path d="M73.3767 141.48C75.7461 143.558 75.6587 149.904 70.9652 150.351" stroke="#CC775A" stroke-width="2.40386" stroke-linecap="round" stroke-linejoin="round"/><circle r="7.65858" transform="matrix(-0.999165 0.040854 0.040854 0.999165 78.1998 135.215)" fill="#DA8E74"/><ellipse cx="145.724" cy="197.409" rx="14.4232" ry="13.8222" fill="#DA8E74"/><path fill-rule="evenodd" clip-rule="evenodd" d="M127.613 136.62C131.532 131.911 136 127.826 140.867 124.406C142.957 124.415 145.079 124.846 147.112 125.746L183.094 141.664L175.879 157.972L127.613 136.62Z" fill="#DA8E74"/><path d="M153.502 132.054L150.513 132.68C149.604 129.942 147.458 124.554 143.262 119.365" stroke="#3D3D3D" stroke-width="10.8174" stroke-linecap="round" stroke-linejoin="round"/><path d="M74.1959 129.488C69.7947 132.2 68.5819 141.153 76.2936 142.883" stroke="#CC775A" stroke-width="2.40386" stroke-linecap="round" stroke-linejoin="round"/><rect x="225.699" y="226.387" width="37.2388" height="33.5001" transform="rotate(57.6579 225.699 226.387)" fill="#FFAADE"/><path d="M70.9646 150.351C70.1515 150.496 69.0051 150.819 66.1271 150.623" stroke="#CC775A" stroke-width="2.40386" stroke-linecap="round" stroke-linejoin="round"/><rect x="65.7031" y="139.15" width="7.21159" height="2.40386" rx="1.20193" transform="rotate(3.89972 65.7031 139.15)" fill="#CC775A"/><mask id="mask1" mask-type="alpha" maskUnits="userSpaceOnUse" x="228" y="217" width="44" height="54"><path d="M269.408 225.047L259.874 218.769C258.707 218.001 257.139 218.324 256.371 219.491L230.298 259.089C229.53 260.255 229.853 261.823 231.019 262.591L240.553 268.869C241.72 269.637 243.288 269.314 244.056 268.148L270.129 228.549C270.897 227.383 270.574 225.815 269.408 225.047Z" fill="white"/></mask><g mask="url(#mask1)"><path d="M269.408 225.047L259.874 218.769C258.707 218.001 257.139 218.324 256.371 219.491L230.298 259.089C229.53 260.255 229.853 261.823 231.019 262.591L240.553 268.869C241.72 269.637 243.288 269.314 244.056 268.148L270.129 228.549C270.897 227.383 270.574 225.815 269.408 225.047Z" fill="#4E4A4A"/><path d="M272.914 224.327L258.622 214.917C258.039 214.533 257.255 214.694 256.871 215.278L242.27 237.453C241.886 238.036 242.048 238.82 242.631 239.204L256.922 248.614C257.506 248.998 258.29 248.837 258.674 248.253L273.275 226.078C273.659 225.495 273.497 224.711 272.914 224.327Z" fill="#D93C5E"/></g><path fill-rule="evenodd" clip-rule="evenodd" d="M250.039 244.083C258.222 249.471 260.487 260.472 255.099 268.655L220.009 321.948C218.473 324.281 215.337 324.927 213.004 323.39L191.819 309.442C189.486 307.906 188.841 304.769 190.377 302.436L225.467 249.144C230.855 240.961 241.856 238.695 250.039 244.083Z" fill="#4E4A4A"/><path d="M233.99 259.248L230.279 256.805C229.404 256.229 228.228 256.471 227.652 257.346L195.669 305.92C195.093 306.795 195.335 307.971 196.21 308.547L199.921 310.99C200.796 311.566 201.972 311.324 202.548 310.449L234.531 261.875C235.107 261.001 234.865 259.824 233.99 259.248Z" fill="#A09797"/><path d="M245.677 273.757L225.033 260.164C224.158 259.588 222.982 259.831 222.406 260.705L200.852 293.44C200.276 294.315 200.519 295.491 201.393 296.067L222.037 309.66C222.912 310.236 224.088 309.994 224.664 309.119L246.218 276.384C246.794 275.509 246.552 274.333 245.677 273.757Z" fill="#D93C5E"/><path d="M271.677 226.201L257.912 217.138C257.037 216.562 255.861 216.804 255.285 217.679L252.504 221.903C251.928 222.778 252.17 223.954 253.045 224.53L266.81 233.593C267.685 234.169 268.861 233.927 269.437 233.052L272.218 228.828C272.794 227.954 272.552 226.777 271.677 226.201Z" fill="#D93C5E"/><path d="M234.566 254.332C236.758 255.775 239.702 255.172 241.142 252.986C242.582 250.799 241.973 247.856 239.781 246.413C237.589 244.969 234.645 245.572 233.205 247.759C231.765 249.946 232.375 252.889 234.566 254.332Z" fill="#A09797"/><path d="M232.441 265.044L225.562 260.514L201.923 296.417L208.802 300.946L232.441 265.044Z" fill="#EE476B"/><path d="M265.953 223.946L258.539 219.064C257.81 218.584 256.83 218.786 256.35 219.515C255.87 220.244 256.071 221.224 256.8 221.704L264.214 226.586C264.943 227.066 265.924 226.864 266.404 226.135C266.884 225.406 266.682 224.426 265.953 223.946Z" fill="#EE476B"/><circle cx="236.472" cy="297.17" r="19.8319" fill="#DA8E74"/><rect x="57.2695" y="86.9126" width="9.29371" height="12.0776" rx="2.40386" transform="rotate(3.32541 57.2695 86.9126)" fill="white"/></g></svg>